<?xml version="1.0" encoding="UTF-8"?>
<svg width="186px" height="322px" viewBox="0 0 186 322" version="1.1" xmlns="http://www.w3.org/2000/svg" xmlns:xlink="http://www.w3.org/1999/xlink">
    <!-- Generator: Sketch 46.2 (44496) - http://www.bohemiancoding.com/sketch -->
    <title>Artboard</title>
    <desc>Created with Sketch.</desc>
    <defs></defs>
    <g id="Page-1" stroke="none" stroke-width="1" fill="none" fill-rule="evenodd">
        <g id="Artboard" stroke="#EA969F">
            <g id="Page-1" transform="translate(1.000000, 1.000000)">
                <path d="M0,3 L183.322,3" id="Stroke-9" stroke-width="3" stroke-linecap="round"></path>
                <path d="M3,0 L3,321" id="Stroke-11" stroke-width="3" stroke-linecap="round"></path>
                <path d="M0,317 L183.322,317" id="Stroke-7" stroke-width="3" stroke-linecap="round"></path>
                <path d="M179,0 L179,321" id="Stroke-17" stroke-width="3" stroke-linecap="round"></path>
                <path d="M0,15 L183.322,15" id="Stroke-1" stroke-width="2" stroke-linecap="round"></path>
                <path d="M0,38 L179.661,38" id="Stroke-3" stroke-width="2" stroke-linecap="round"></path>
                <path d="M2,293 L177.661,293" id="Stroke-6" stroke-width="2" stroke-linecap="round"></path>
                <path d="M123,293.5 L123,317.25" id="Stroke-14" stroke-width="2" stroke-linecap="round"></path>
                <path d="M63,293.5 L63,317.25" id="Stroke-15" stroke-width="2" stroke-linecap="round"></path>
                <path d="M149,293.125 L149,316.875" id="Stroke-16" stroke-width="2" stroke-linecap="round"></path>
                <g id="Group-35" transform="translate(7.000000, 48.000000)" stroke-width="2">
                    <g id="Group-24" transform="translate(0.000000, 33.000000)" stroke-linecap="round" stroke-linejoin="round">
                        <path d="M40.4561,73.9477 C39.7291,73.3507 39.3721,72.1187 39.7091,71.0397 C39.9621,70.2377 40.8641,69.8847 41.1211,69.2967 C40.5651,67.6947 41.6351,66.0277 41.7031,64.3957 C41.7251,63.8667 41.5041,63.3107 41.4541,62.7347 C41.3271,61.2717 41.5591,59.7847 41.7861,58.4147 C41.9681,57.3167 42.6731,55.5397 42.6171,54.5927 C42.5771,53.9427 42.0421,53.3047 41.9511,52.4337 C41.8451,51.3947 42.0321,50.4147 41.9511,49.3607 C40.8601,47.8477 40.1531,45.9547 39.9571,43.5447 C37.6041,45.6297 33.7311,47.4677 30.5721,49.0277 C29.4531,49.5787 28.1131,50.2807 27.0001,50.4397 C22.8191,51.0347 22.4041,48.6177 21.0191,46.2027 C20.2671,44.8917 19.4581,43.7507 18.7751,42.6317 C18.0811,41.4937 17.4411,40.1317 16.7811,38.8097 C16.0941,37.4277 15.1831,36.1547 14.7071,34.9897 C14.4101,34.2697 14.2681,33.3347 14.0401,32.4967 C13.8111,31.6477 13.3791,30.8677 13.2101,30.1707 C12.9171,28.9677 12.8141,27.6487 12.0471,27.0147 C10.5511,26.3547 9.1711,27.0627 7.8111,27.4297 C6.9261,26.9587 6.3111,26.2757 5.4011,25.7687 C4.5341,25.2847 3.5841,25.2417 2.4951,24.9387 C2.2401,24.8667 0.4611,24.4047 0.4181,23.9407 C0.3601,23.3117 0.8611,23.5167 1.4981,23.2767 C2.0211,23.0767 2.2461,22.7867 2.7441,22.7777 C3.2271,22.7717 3.5921,23.0597 4.1561,23.1937 C6.6851,23.7927 8.8841,22.8557 11.4661,22.7777 C10.3071,22.3907 8.1901,21.2947 9.3901,19.8707 C10.6161,19.8107 11.5001,20.7667 12.7131,21.2827 C14.6701,22.1187 16.8891,22.1597 17.4481,24.1907 C18.1461,24.4047 18.7061,24.7587 19.1071,25.2707 C18.9621,26.8237 19.7641,27.5347 20.2711,28.7587 C21.3181,31.2857 22.6801,33.5807 23.9261,35.7367 C24.4531,35.9007 25.0421,36.1147 25.3381,36.5667 C25.5921,36.9537 25.4751,37.4757 25.6701,37.8957 C26.0401,38.6927 27.1761,39.0007 27.1651,39.8897 C27.5681,39.5717 27.8771,39.1607 28.5781,39.1427 C29.5361,37.4427 30.9391,36.1877 32.2341,34.8227 C32.1551,34.3577 32.4441,34.2607 32.4821,33.9097 C32.7731,33.7017 33.1491,33.5787 33.4791,33.4107 C34.9491,30.8647 37.0831,28.9837 39.4601,27.3467 C39.6501,26.8437 39.8731,26.3757 40.2911,26.1007 C40.8641,26.0277 41.1521,26.2347 41.5361,26.3497 C41.5251,25.0047 42.7611,25.4237 43.4471,25.8527 C44.0031,25.4287 44.7571,25.4477 45.3581,25.1877 C45.8441,24.9757 46.1491,24.4227 46.6051,24.1907 C47.0901,23.9417 47.7471,23.9377 48.3481,23.6917 C49.6651,23.1527 50.5941,22.0837 52.0861,21.9477 C51.8751,20.3587 52.0431,18.3907 50.8401,17.7947 C47.2811,17.6007 48.7901,12.6557 47.4341,10.4007 C47.4041,9.4817 47.3871,8.8247 47.2691,7.8267 C47.8871,7.0327 47.7811,5.5147 48.2641,4.5867 C49.4071,3.9847 50.5111,3.3427 51.0891,2.1777 C52.0521,1.9167 52.6271,0.4907 53.9131,1.0977 C53.8631,1.2117 53.5941,1.1097 53.5811,1.2637 C54.2971,1.2587 54.9461,0.9907 55.6591,0.9307 C58.7661,0.6727 60.8411,1.7717 62.0551,3.1737 C62.3351,3.4967 62.8361,3.8387 62.9671,4.0867 C63.1211,4.3767 63.0781,5.0947 63.3001,5.6657 C63.4701,6.1017 63.8081,6.4577 63.8821,6.7447 C63.9741,7.1067 63.8881,7.5827 63.9651,7.9917 C64.2021,9.2487 65.1811,10.4817 65.2941,11.4817 C65.4561,12.8977 64.9881,14.0317 64.4641,14.9697 C64.2501,15.1447 63.8941,15.1747 63.6321,15.3017 C62.7271,16.9177 62.9141,19.6227 62.5531,21.7807 C63.3881,21.6937 63.8931,22.5577 64.6291,22.8617 C65.0131,23.0197 65.4971,23.0117 65.8751,23.1937 C66.5211,23.5017 66.9851,23.9387 67.6201,24.1067 C67.9671,24.1987 68.3801,24.1587 68.6991,24.2727 C69.1761,24.4447 69.4781,25.0267 70.0301,25.1057 C70.5951,25.1837 71.2981,24.7207 71.8561,24.8557 C72.3901,24.9827 72.5301,25.7927 72.9371,26.0177 C74.6541,25.9117 74.9071,26.8657 75.8441,27.7637 C77.7411,29.5787 79.9231,31.7187 80.0801,34.6567 C80.9141,35.2917 81.6681,36.0027 81.6581,37.4807 C82.8381,38.9317 83.3121,41.0877 85.0641,41.9677 C86.0521,41.0717 86.4971,39.6337 88.0551,39.3097 C89.2191,38.0847 90.3531,36.4017 91.2951,34.8227 C92.0981,33.4767 93.8091,32.0657 93.9531,30.3377 C94.4321,29.9037 95.1671,29.7247 95.8641,29.5057 C96.5011,27.5587 98.9341,27.9397 100.9291,27.1797 C102.1071,26.7337 102.9751,25.8307 104.0861,25.9347 C105.2371,27.3767 103.1451,28.3877 102.0941,28.9257 C104.1571,29.1877 106.9291,29.7857 108.9041,29.0907 C109.3791,28.9247 112.0351,27.6667 112.0611,29.0907 C112.0661,29.3737 110.9971,30.2227 110.5661,30.5027 C109.7361,31.0437 107.7901,32.1517 106.8281,32.4137 C106.5141,32.4997 106.1181,32.4217 105.8311,32.4967 C105.4391,32.5997 105.1591,32.8687 104.9171,32.9127 C104.3751,33.0117 103.8221,32.8977 103.3391,32.9127 C102.5521,32.9367 101.8911,33.1597 100.8461,33.0787 C100.5261,33.6907 99.7411,34.2757 99.4351,34.9897 C99.1911,35.5587 99.2251,36.3117 98.9371,36.9827 C98.5611,37.8547 97.6411,38.8307 97.0261,39.8897 C96.3831,41.0017 96.0861,42.2597 95.4471,43.1297 C94.7781,44.0417 93.8861,44.8067 93.1221,45.6227 C91.4551,47.3997 90.3321,49.0297 88.8021,51.0217 C88.0211,52.0367 86.9231,53.5327 85.9781,53.5957 C83.1631,53.7857 81.5381,52.2217 79.9971,50.9377 C77.5021,48.8597 74.8541,46.3097 73.0191,43.9597 C73.4841,45.1057 72.6911,46.1267 72.6041,47.1997 C72.5521,47.8327 72.7931,48.4427 72.6871,49.1107 C72.6401,49.4087 72.4631,49.7047 72.4371,50.0247 C72.3841,50.6647 72.6421,51.3327 72.6041,51.9347 C72.5341,53.0497 71.7831,53.8347 71.4401,54.7597 C72.1491,56.3047 71.5881,57.9847 71.7721,59.5777 C71.8491,60.2257 72.2011,60.8597 72.2711,61.4877 C72.4061,62.7017 71.8011,63.7737 71.9391,64.8107 C72.0321,65.5057 72.5431,66.1027 72.6041,66.7217 C72.6741,67.4317 72.2681,68.1237 72.3541,68.7967 C72.4481,69.5307 73.3101,70.0657 73.4351,71.0397 C73.5901,72.2687 73.1481,72.7727 72.7711,73.6157" id="Stroke-23"></path>
                    </g>
                    <path d="M97.3469,43.1882 C97.3469,43.1882 125.1589,44.5582 131.0499,44.9692 C136.9419,45.3802 143.5179,41.5442 143.9289,34.1462 C144.3399,26.7472 143.5179,15.5132 143.1069,9.0742 C142.6959,2.6342 135.1599,-0.7618 125.8439,1.2102 C116.5279,3.1822 94.3329,6.6072 88.9899,7.5662 C83.6459,8.5262 80.3579,11.2662 80.3579,17.5682 C80.3579,23.8702 80.2209,28.9402 80.0839,34.0092 C79.9469,39.0782 83.6459,43.5992 91.3189,42.9142 C91.3189,42.9142 90.3589,47.5722 86.7969,48.6682 C86.7969,48.6682 94.6069,50.0382 97.3469,43.1882 Z" id="Stroke-33"></path>
                    <polyline id="Path-2" points="81.6875 23.8496094 6.6875 16.9121094 6.6875 108.570312 88.1507021 108.570312 115.367188 43.9863281"></polyline>
                    <g id="Group-28" transform="translate(2.000000, 112.000000)" stroke-linecap="round">
                        <path d="M143.3838,118.4095 C143.0638,117.6615 142.7678,116.6615 142.5758,115.8975 C142.4498,115.4005 142.5568,115.0345 142.3968,114.6415 C142.2898,114.3835 141.9468,114.1785 141.7668,113.8335 C140.6138,111.6155 140.2458,108.9285 139.1668,106.6565 C139.3308,106.2825 139.5518,105.9645 139.6148,105.4885 C140.0348,105.4375 140.6828,105.2995 141.1398,105.0395 C141.1688,102.7095 140.4048,100.5485 140.6008,98.1325 C140.7488,96.3155 140.8718,94.3355 140.9588,92.3885 C141.0408,90.6235 141.2868,88.7875 141.1398,87.0945 C141.0788,86.3985 140.8538,85.7445 140.7798,85.0305 C140.2938,80.2765 140.1048,75.2655 139.7948,70.5845 C139.5508,66.9165 140.5048,61.9935 140.0628,57.8435 C139.9868,57.1125 139.6208,56.3195 139.5258,55.6015 C139.2048,53.2025 139.9388,50.9665 138.7168,49.2295 C138.2408,48.5535 137.2738,48.2075 136.3838,47.5255 C134.8358,46.3375 133.5278,45.2455 132.0778,43.8465 C131.4488,43.2395 130.3658,42.4315 130.1048,41.8725 C129.6298,40.8625 130.0128,39.8195 129.6548,38.8215 C129.2318,37.6355 128.1048,37.0505 127.5008,35.8615 C128.1198,34.3895 127.8608,31.7825 129.1168,31.0155 C129.6468,30.6915 130.4328,30.8475 131.1798,30.7465 C133.0938,30.4835 135.0548,29.9035 134.0508,27.6055 C134.4218,26.9935 135.3358,25.4445 134.3218,24.8245 C135.3738,24.4725 134.5828,23.1735 134.8588,22.2215 C135.5638,21.5515 136.9998,22.0645 136.9238,20.6075 C136.8608,19.4285 134.5008,18.0045 134.4108,16.3905 C134.3748,15.7265 134.8248,15.5825 134.6798,14.7735 C135.8328,13.7655 137.1468,11.8245 136.9238,9.2105 C136.8488,8.3515 136.6238,7.1005 136.2938,6.6095 C135.8348,5.9215 134.8188,6.1905 134.3218,5.5335 C133.9668,5.4995 133.4598,5.6145 133.2438,5.4425 C133.2018,5.2505 133.3718,5.2705 133.5128,5.2625 C132.6708,5.0605 132.7578,3.9265 131.8088,3.8265 C131.8178,3.3985 131.6008,3.1975 131.4508,2.9295 C130.4758,3.1255 129.9058,2.2585 129.0278,2.0335 C128.5448,1.9105 128.1148,2.1785 127.5918,2.1225 C126.3758,1.9945 125.1138,0.9785 123.7338,1.4945 C124.0048,1.2035 123.9888,1.3165 123.6418,1.1365 C123.5888,1.3595 122.2318,0.8595 121.3108,0.7765 C120.4168,0.6955 119.4288,0.6135 118.8878,0.6875 C116.7968,0.9705 115.3148,2.1995 113.8628,2.4815 C114.0688,2.8325 113.6488,3.0075 113.3248,3.2895 C113.1158,3.2635 113.1158,3.0465 113.3248,3.0205 C113.0658,2.8845 112.8638,3.8895 112.4268,3.7385 C112.4788,3.6085 112.5668,3.5195 112.6958,3.4675 C112.1398,3.9095 111.6288,4.4495 111.0818,4.9935 C110.5328,5.5395 109.7758,6.1045 109.3758,6.7885 C109.1698,7.1435 109.1348,7.5975 108.9288,7.9545 C108.5628,8.5815 107.8178,9.0475 107.4918,9.7495 C107.3398,10.0775 107.1978,10.7805 107.0438,11.2755 C106.8838,11.7835 106.6298,12.4025 106.5958,12.8005 C106.5458,13.3655 106.8898,14.0245 106.7748,14.5955 C106.7028,14.9455 106.3638,15.2425 106.2358,15.5825 C106.0048,16.1975 105.8528,17.0875 105.7878,17.8255 C105.6848,19.0095 105.9688,20.4705 105.6958,21.5035 C105.6068,21.8525 105.1628,22.1265 104.9798,22.5805 C104.7658,23.1125 104.5448,24.1065 104.5318,24.5555 C104.5218,24.8885 104.5788,25.5095 104.9798,25.7215 C105.1468,26.6025 105.4868,28.0015 106.3248,28.5035 C106.0568,28.1435 105.8218,27.7525 105.7878,27.1575 C106.3288,28.1415 107.4938,28.5015 108.0298,29.4895 C107.9338,29.7835 107.5418,29.7775 107.4018,30.0285 C107.6898,30.2935 107.7208,30.4675 107.5838,30.9255 C107.9718,30.8655 108.0638,30.5095 108.4798,30.4765 C109.4778,30.8305 109.2608,31.5155 110.4538,31.1055 C110.2638,31.6625 109.1488,32.0245 108.1208,31.8235 C108.6508,32.1585 109.2228,32.4545 109.8248,32.7205 C111.3618,32.9175 112.2218,32.0385 112.9668,31.7335 C113.5848,32.1225 113.7508,32.1865 114.6708,32.0025 C114.5528,32.6375 114.8308,33.4945 114.4918,34.0645 C110.6638,35.9945 109.4708,40.2805 108.1208,45.1025 C107.6138,46.9135 106.7898,48.7265 106.3248,50.5765 C105.8338,52.5375 105.5908,54.7275 105.1588,56.8565 C104.4838,60.1825 104.2588,62.9795 103.9918,66.2785 C103.8658,67.8335 104.2508,69.4075 104.1708,70.9445 C104.0868,72.5815 103.3588,74.1815 103.2748,75.7905 C101.5708,75.6075 99.6078,74.9125 97.6208,74.7135 C95.6458,78.8995 94.2808,84.1725 92.5078,88.2615 C91.0208,92.9125 89.2288,97.8465 87.4828,102.8865 C87.0908,104.0165 85.2948,107.3795 86.2248,108.5405 C87.0328,109.5435 89.5588,109.9455 90.8038,110.4245 C95.5408,112.2455 101.1968,113.8165 106.0568,114.9105 C105.5588,116.2025 104.4688,117.1215 103.9918,118.5005" id="Stroke-27" stroke-linejoin="round"></path>
                        <polyline id="Stroke-19" points="131.794922 42.8847656 158.451172 46.7498292 158.451172 120 0.339 120 36.313 32.769 107.601562 40.2382812"></polyline>
                    </g>
                </g>
            </g>
        </g>
    </g>
</svg>